<svg width="1920" height="1080" viewBox="0 0 1920 1080" fill="none" xmlns="http://www.w3.org/2000/svg">
<g clip-path="url(#clip0_98_1639)">
<path d="M1920 0H0V1080H1920V0Z" fill="#181A27"/>
<g filter="url(#filter0_f_98_1639)">
<path d="M973 1728C1374.51 1728 1700 1402.51 1700 1001C1700 599.489 1374.51 274 973 274C571.489 274 246 599.489 246 1001C246 1402.51 571.489 1728 973 1728Z" fill="#242C50"/>
<path d="M1127 1132C1528.51 1132 1854 806.511 1854 405C1854 3.48898 1528.51 -322 1127 -322C725.489 -322 400 3.48898 400 405C400 806.511 725.489 1132 1127 1132Z" fill="#181A27"/>
<path d="M720 1308C1121.51 1308 1447 982.511 1447 581C1447 179.489 1121.51 -146 720 -146C318.489 -146 -7 179.489 -7 581C-7 982.511 318.489 1308 720 1308Z" fill="#242C50"/>
<path d="M19 769C420.511 769 746 443.511 746 42C746 -359.511 420.511 -685 19 -685C-382.511 -685 -708 -359.511 -708 42C-708 443.511 -382.511 769 19 769Z" fill="#242C50"/>
<path d="M414 857C815.511 857 1141 531.511 1141 130C1141 -271.511 815.511 -597 414 -597C12.489 -597 -313 -271.511 -313 130C-313 531.511 12.489 857 414 857Z" fill="#181A27"/>
<path d="M1677 913C2078.51 913 2404 587.511 2404 186C2404 -215.511 2078.51 -541 1677 -541C1275.49 -541 950 -215.511 950 186C950 587.511 1275.49 913 1677 913Z" fill="#242C50"/>
</g>
</g>
<defs>
<filter id="filter0_f_98_1639" x="-1362" y="-1339" width="4420" height="3721" filterUnits="userSpaceOnUse" color-interpolation-filters="sRGB">
<feFlood flood-opacity="0" result="BackgroundImageFix"/>
<feBlend mode="normal" in="SourceGraphic" in2="BackgroundImageFix" result="shape"/>
<feGaussianBlur stdDeviation="327" result="effect1_foregroundBlur_98_1639"/>
</filter>
<clipPath id="clip0_98_1639">
<rect width="1920" height="1080" fill="white"/>
</clipPath>
</defs>
</svg>