<svg width="1920" height="1080" viewBox="0 0 1920 1080" fill="none" xmlns="http://www.w3.org/2000/svg">
<g filter="url(#filter0_f_89_392)">
<path d="M509 794C910.511 794 1236 468.511 1236 67C1236 -334.511 910.511 -660 509 -660C107.489 -660 -218 -334.511 -218 67C-218 468.511 107.489 794 509 794Z" fill="#A04786"/>
<path d="M34 1332C435.511 1332 761 1006.51 761 605C761 203.489 435.511 -122 34 -122C-367.511 -122 -693 203.489 -693 605C-693 1006.51 -367.511 1332 34 1332Z" fill="#37306B"/>
<path d="M1620 738C2021.51 738 2347 412.511 2347 11C2347 -390.511 2021.51 -716 1620 -716C1218.49 -716 893 -390.511 893 11C893 412.511 1218.49 738 1620 738Z" fill="#A04786"/>
<path d="M505 1689C906.511 1689 1232 1363.51 1232 962C1232 560.489 906.511 235 505 235C103.489 235 -222 560.489 -222 962C-222 1363.51 103.489 1689 505 1689Z" fill="#A04786"/>
<path d="M942 1599C1343.51 1599 1669 1273.51 1669 872C1669 470.489 1343.51 145 942 145C540.489 145 215 470.489 215 872C215 1273.51 540.489 1599 942 1599Z" fill="#37306B"/>
<path d="M1273 1378C1674.51 1378 2000 1052.51 2000 651C2000 249.489 1674.51 -76 1273 -76C871.489 -76 546 249.489 546 651C546 1052.51 871.489 1378 1273 1378Z" fill="#A04786"/>
</g>
<defs>
<filter id="filter0_f_89_392" x="-1347" y="-1370" width="4348" height="3713" filterUnits="userSpaceOnUse" color-interpolation-filters="sRGB">
<feFlood flood-opacity="0" result="BackgroundImageFix"/>
<feBlend mode="normal" in="SourceGraphic" in2="BackgroundImageFix" result="shape"/>
<feGaussianBlur stdDeviation="327" result="effect1_foregroundBlur_89_392"/>
</filter>
</defs>
</svg>
