<svg width="350" height="292" viewBox="0 0 350 292" fill="none" xmlns="http://www.w3.org/2000/svg">
<g clip-path="url(#clip0_56_178)">
<rect width="350" height="291.667" fill="#030303"/>
<g opacity="0.41" filter="url(#filter0_f_56_178)">
<circle cx="82" cy="74" r="118" fill="#866BFE"/>
</g>
<g filter="url(#filter1_d_56_178)">
<circle cx="66.5" cy="63.5" r="32.5" fill="black"/>
<circle cx="66.5" cy="63.5" r="31.75" stroke="#866BFE" stroke-width="1.5"/>
</g>
<path d="M64.6508 49.4323C65.4603 48.8564 66.5397 48.8564 67.3493 49.4323C68.9902 50.5623 70.9959 51.3351 73.0015 51.3351C74.9634 51.3351 77.042 50.5477 78.6465 49.4323C79.5144 48.8126 80.6959 48.8637 81.5054 49.5563C82.5556 50.4238 83.8757 51.0872 85.1958 51.3934C86.4502 51.685 87.2306 52.939 86.9389 54.1929C86.6471 55.4469 85.3927 56.2269 84.1383 55.9353C82.3514 55.5198 80.8636 54.7324 79.8936 54.1127C77.7786 55.25 75.4083 56.0009 73.0015 56.0009C70.675 56.0009 68.5818 55.2792 67.1377 54.6231C66.7147 54.4262 66.3282 54.2367 66 54.0617C65.6718 54.2367 65.2926 54.4335 64.8623 54.6231C63.4182 55.2792 61.325 56.0009 58.9985 56.0009C56.5917 56.0009 54.2214 55.25 52.1064 54.12C51.1291 54.7324 49.6486 55.5271 47.8617 55.9426C46.6073 56.2342 45.3529 55.4542 45.0611 54.2002C44.7694 52.9463 45.5498 51.6923 46.8042 51.4007C48.117 51.0872 49.4444 50.4238 50.4873 49.5563C51.2968 48.8637 52.4784 48.8199 53.3462 49.4323C54.9653 50.5477 57.0366 51.3351 58.9985 51.3351C61.0041 51.3351 63.0098 50.5623 64.6508 49.4323ZM67.3493 70.4286C68.9902 71.5586 70.9959 72.3314 73.0015 72.3314C74.9634 72.3314 77.042 71.544 78.6465 70.4286C79.5144 69.8089 80.6959 69.8599 81.5054 70.5525C82.5556 71.4201 83.8757 72.0835 85.1958 72.3897C86.4502 72.6813 87.2306 73.9353 86.9389 75.1892C86.6471 76.4431 85.3927 77.2232 84.1383 76.9316C82.3514 76.516 80.8636 75.7287 79.8936 75.109C77.7786 76.2463 75.4083 76.9972 73.0015 76.9972C70.675 76.9972 68.5818 76.2755 67.1377 75.6193C66.7147 75.4225 66.3282 75.2329 66 75.058C65.6718 75.2329 65.2926 75.4298 64.8623 75.6193C63.4182 76.2755 61.325 76.9972 58.9985 76.9972C56.5917 76.9972 54.2214 76.2463 52.1064 75.1163C51.1291 75.7287 49.6486 76.5233 47.8617 76.9389C46.6073 77.2305 45.3529 76.4504 45.0611 75.1965C44.7694 73.9425 45.5498 72.6886 46.8042 72.397C48.1243 72.0908 49.4444 71.4274 50.4946 70.5598C51.3041 69.8745 52.4856 69.8235 53.3535 70.4359C54.9653 71.544 57.0366 72.3314 58.9985 72.3314C61.0041 72.3314 63.0098 71.5586 64.6508 70.4286C65.4603 69.8526 66.5397 69.8526 67.3493 70.4286ZM67.3493 59.9305C68.9902 61.0605 70.9959 61.8332 73.0015 61.8332C74.9634 61.8332 77.042 61.0459 78.6465 59.9305C79.5144 59.3108 80.6959 59.3618 81.5054 60.0544C82.5556 60.9219 83.8757 61.5854 85.1958 61.8916C86.4502 62.1832 87.2306 63.4371 86.9389 64.6911C86.6471 65.945 85.3927 66.7251 84.1383 66.4335C82.3514 66.0179 80.8636 65.2306 79.8936 64.6109C77.7786 65.7482 75.4083 66.4991 73.0015 66.4991C70.675 66.4991 68.5818 65.7773 67.1377 65.1212C66.7147 64.9244 66.3282 64.7348 66 64.5598C65.6718 64.7348 65.2926 64.9316 64.8623 65.1212C63.4182 65.7773 61.325 66.4991 58.9985 66.4991C56.5917 66.4991 54.2214 65.7482 52.1064 64.6182C51.1291 65.2306 49.6486 66.0252 47.8617 66.4408C46.6073 66.7324 45.3529 65.9523 45.0611 64.6984C44.7694 63.4444 45.5498 62.1905 46.8042 61.8989C48.1243 61.5927 49.4444 60.9292 50.4946 60.0617C51.3041 59.3691 52.4856 59.3254 53.3535 59.9377C54.9653 61.0459 57.0366 61.8332 58.9985 61.8332C61.0041 61.8332 63.0098 61.0605 64.6508 59.9305C65.4603 59.3545 66.5397 59.3545 67.3493 59.9305Z" fill="#EAE0E0"/>
</g>
<defs>
<filter id="filter0_f_56_178" x="-118.4" y="-126.4" width="400.8" height="400.8" filterUnits="userSpaceOnUse" color-interpolation-filters="sRGB">
<feFlood flood-opacity="0" result="BackgroundImageFix"/>
<feBlend mode="normal" in="SourceGraphic" in2="BackgroundImageFix" result="shape"/>
<feGaussianBlur stdDeviation="41.2" result="effect1_foregroundBlur_56_178"/>
</filter>
<filter id="filter1_d_56_178" x="30" y="31" width="73" height="73" filterUnits="userSpaceOnUse" color-interpolation-filters="sRGB">
<feFlood flood-opacity="0" result="BackgroundImageFix"/>
<feColorMatrix in="SourceAlpha" type="matrix" values="0 0 0 0 0 0 0 0 0 0 0 0 0 0 0 0 0 0 127 0" result="hardAlpha"/>
<feOffset dy="4"/>
<feGaussianBlur stdDeviation="2"/>
<feComposite in2="hardAlpha" operator="out"/>
<feColorMatrix type="matrix" values="0 0 0 0 0 0 0 0 0 0 0 0 0 0 0 0 0 0 0.25 0"/>
<feBlend mode="normal" in2="BackgroundImageFix" result="effect1_dropShadow_56_178"/>
<feBlend mode="normal" in="SourceGraphic" in2="effect1_dropShadow_56_178" result="shape"/>
</filter>
<clipPath id="clip0_56_178">
<rect width="350" height="291.67" fill="white"/>
</clipPath>
</defs>
</svg>
